<?xml version="1.0" encoding="UTF-8"?>
<svg xmlns="http://www.w3.org/2000/svg" xmlns:xlink="http://www.w3.org/1999/xlink" height="624.1" preserveAspectRatio="xMidYMid meet" version="1.0" viewBox="-11.2 -2.8 433.8 624.1" width="433.8" zoomAndPan="magnify"><g><g><g id="change1_2"><path d="M336.78,93.9c-26.73-7.44-42.43-35.25-34.98-61.98c3.73-13.39-4.1-27.26-17.49-30.99c-13.39-3.73-27.26,4.1-30.99,17.49 l-80.08,287.59c-12.03-12.36-27.35-21.82-45.14-26.77C74.45,264.3,18.65,295.79,3.71,349.44 c-14.94,53.65,16.56,109.44,70.2,124.38c53.65,14.94,109.44-16.55,124.38-70.2l80.13-287.78c11.97,12.25,27.19,21.63,44.85,26.54 c26.73,7.44,42.43,35.25,34.98,61.98c-3.73,13.39,4.1,27.26,17.49,30.99c13.39,3.73,27.26-4.1,30.99-17.49 C421.64,164.4,390.25,108.79,336.78,93.9z" fill="inherit"/></g></g><g><g id="change1_1"><path d="M344.64,327.4c-16.68,4.23-33.69-5.9-37.92-22.58c-2.12-8.35-10.61-13.41-18.96-11.29 c-8.35,2.12-13.41,10.61-11.29,18.96l45.51,179.44c-10.28-2.95-21.44-3.31-32.54-0.5c-33.47,8.49-53.8,42.63-45.31,76.1 c8.49,33.47,42.63,53.79,76.1,45.3c33.47-8.49,53.8-42.63,45.31-76.1l-45.54-179.56c10.22,2.91,21.3,3.26,32.31,0.47 c16.68-4.23,33.69,5.9,37.92,22.58c2.12,8.35,10.61,13.41,18.96,11.29s13.41-10.61,11.29-18.96 C412.02,339.19,378,318.94,344.64,327.4z" fill="inherit"/></g></g></g></svg>