<?xml version="1.0" encoding="UTF-8"?>
<!DOCTYPE svg PUBLIC "-//W3C//DTD SVG 1.0//EN" "http://www.w3.org/TR/2001/REC-SVG-20010904/DTD/svg10.dtd">
<svg clip-rule="evenodd" fill-rule="evenodd" height="910" preserveAspectRatio="xMidYMid meet" stroke-linejoin="round" stroke-miterlimit="2" version="1.0" viewBox="0.3 0.8 910.3 910.3" width="910" xmlns="http://www.w3.org/2000/svg" xmlns:xlink="http://www.w3.org/1999/xlink" zoomAndPan="magnify"><g><g><g><g id="change1_1"><path d="M433.016,311.629C441.461,311.629 448.312,318.477 448.312,326.926L448.312,392.332C448.312,400.777 441.461,407.629 433.016,407.629L367.609,407.629C359.16,407.629 352.312,400.777 352.312,392.332L352.312,326.926C352.312,318.477 359.16,311.629 367.609,311.629L433.016,311.629Z" fill="#fffc00" fill-rule="nonzero" transform="matrix(1,0,0,1,-1399,-5553) matrix(1,0,0,2.973269,0,-9619.684954) matrix(1,0,0,0.33633,0,3346.212673) matrix(9.482639,0,0,9.482639,-1941.560547,2269.26895)"/></g><g id="change2_1"><path d="M432.68,376.082C432.395,375.148 431.043,374.488 431.043,374.488C430.914,374.418 430.801,374.359 430.703,374.312C428.449,373.223 426.449,371.906 424.762,370.418C423.41,369.219 422.25,367.898 421.32,366.5C420.184,364.789 419.652,363.359 419.422,362.586C419.293,362.078 419.312,361.879 419.422,361.613C419.508,361.391 419.773,361.184 419.895,361.082C420.656,360.543 421.879,359.75 422.637,359.262C423.289,358.84 423.848,358.477 424.176,358.246C425.234,357.504 425.961,356.75 426.387,355.938C426.938,354.887 427.008,353.727 426.574,352.586C425.996,351.051 424.562,350.137 422.734,350.137C422.332,350.137 421.914,350.184 421.496,350.27C420.453,350.5 419.461,350.871 418.633,351.195C418.574,351.219 418.504,351.172 418.512,351.105C418.602,349.051 418.699,346.289 418.473,343.668C418.27,341.297 417.777,339.297 416.984,337.551C416.18,335.801 415.137,334.508 414.324,333.57C413.547,332.684 412.18,331.367 410.117,330.191C407.223,328.531 403.922,327.691 400.312,327.691C396.707,327.691 393.414,328.531 390.512,330.191C388.328,331.438 386.934,332.844 386.301,333.57C385.484,334.508 384.441,335.801 383.641,337.551C382.836,339.297 382.352,341.293 382.148,343.668C381.922,346.305 382.016,348.844 382.109,351.105C382.109,351.172 382.051,351.219 381.98,351.195C381.152,350.871 380.164,350.5 379.117,350.27C378.707,350.184 378.289,350.137 377.879,350.137C376.062,350.137 374.625,351.051 374.039,352.586C373.609,353.727 373.676,354.887 374.227,355.938C374.66,356.75 375.379,357.504 376.438,358.246C376.762,358.477 377.328,358.84 377.98,359.262C378.715,359.742 379.906,360.516 380.676,361.047C380.77,361.117 381.094,361.359 381.195,361.613C381.301,361.883 381.32,362.086 381.18,362.625C380.945,363.406 380.414,364.82 379.293,366.5C378.363,367.906 377.207,369.219 375.852,370.418C374.168,371.906 372.168,373.223 369.91,374.312C369.805,374.367 369.676,374.426 369.539,374.508C369.539,374.508 368.191,375.195 367.938,376.082C367.559,377.398 368.562,378.629 369.582,379.289C371.25,380.367 373.285,380.949 374.465,381.266C374.793,381.352 375.09,381.434 375.359,381.512C375.527,381.566 375.953,381.73 376.137,381.965C376.363,382.262 376.391,382.625 376.473,383.035C376.598,383.73 376.891,384.586 377.746,385.176C378.688,385.824 379.879,385.871 381.395,385.934C382.98,385.992 384.945,386.066 387.203,386.816C388.246,387.156 389.195,387.742 390.289,388.418C392.578,389.824 395.426,391.578 400.289,391.578C405.16,391.578 408.031,389.82 410.336,388.402C411.426,387.738 412.363,387.156 413.387,386.82C415.645,386.074 417.609,386 419.191,385.938C420.707,385.879 421.902,385.836 422.844,385.184C423.758,384.551 424.023,383.609 424.145,382.902C424.211,382.551 424.25,382.234 424.453,381.977C424.629,381.754 425.02,381.602 425.203,381.539C425.477,381.453 425.789,381.371 426.133,381.277C427.309,380.961 428.793,380.59 430.59,379.574C432.758,378.34 432.906,376.832 432.68,376.082Z" fill="#fff" fill-rule="nonzero" transform="matrix(1,0,0,1,-1399,-5553) matrix(1,0,0,2.973269,0,-9619.684954) matrix(1,0,0,0.33633,0,3346.212673) matrix(9.482639,0,0,9.482639,-1941.560547,2269.26895)"/></g><g id="change3_1"><path d="M434.551,375.355C434.074,374.051 433.156,373.355 432.121,372.777C431.926,372.66 431.742,372.566 431.594,372.5C431.285,372.34 430.969,372.184 430.652,372.023C427.41,370.305 424.879,368.137 423.125,365.57C422.535,364.699 422.121,363.918 421.832,363.277C421.684,362.848 421.691,362.605 421.801,362.383C421.879,362.215 422.098,362.039 422.219,361.953C422.777,361.582 423.348,361.211 423.738,360.961C424.434,360.508 424.984,360.152 425.336,359.91C426.668,358.98 427.598,357.992 428.18,356.887C429,355.328 429.102,353.551 428.469,351.879C427.594,349.562 425.398,348.121 422.742,348.121C422.191,348.121 421.633,348.184 421.078,348.305C420.93,348.336 420.789,348.371 420.648,348.406C420.676,346.828 420.633,345.145 420.492,343.5C419.996,337.707 417.965,334.668 415.852,332.25C414.969,331.242 413.434,329.766 411.129,328.445C407.918,326.598 404.277,325.672 400.312,325.672C396.355,325.672 392.719,326.598 389.508,328.438C387.188,329.758 385.652,331.242 384.777,332.246C382.664,334.664 380.633,337.699 380.137,343.492C379.996,345.137 379.961,346.82 379.98,348.398C379.84,348.363 379.691,348.332 379.551,348.297C378.996,348.176 378.434,348.113 377.887,348.113C375.23,348.113 373.035,349.555 372.16,351.875C371.527,353.543 371.629,355.324 372.449,356.879C373.031,357.984 373.965,358.973 375.293,359.902C375.648,360.152 376.195,360.508 376.891,360.953C377.266,361.195 377.812,361.555 378.352,361.91C378.434,361.965 378.723,362.18 378.824,362.383C378.938,362.613 378.938,362.859 378.77,363.32C378.484,363.945 378.074,364.715 377.496,365.562C375.777,368.074 373.32,370.203 370.188,371.902C368.523,372.781 366.797,373.367 366.07,375.348C365.52,376.844 365.883,378.551 367.277,379.984C367.734,380.477 368.312,380.914 369.043,381.316C370.754,382.262 372.207,382.727 373.352,383.043C373.555,383.102 374.02,383.25 374.223,383.434C374.734,383.879 374.66,384.551 375.34,385.535C375.75,386.148 376.223,386.566 376.613,386.836C378.035,387.816 379.637,387.879 381.336,387.945C382.863,388.008 384.602,388.074 386.582,388.727C387.406,388.996 388.262,389.523 389.242,390.129C391.613,391.59 394.867,393.586 400.305,393.586C405.746,393.586 409.016,391.578 411.406,390.117C412.391,389.516 413.238,388.992 414.031,388.727C416.012,388.074 417.75,388.008 419.281,387.945C420.977,387.879 422.574,387.816 424.004,386.836C424.445,386.523 425.012,386.02 425.457,385.25C425.941,384.422 425.938,383.836 426.395,383.441C426.582,383.277 426.992,383.137 427.215,383.07C428.367,382.754 429.844,382.289 431.586,381.324C432.363,380.898 432.961,380.434 433.441,379.902C433.445,379.895 433.453,379.891 433.461,379.883C434.762,378.469 435.09,376.816 434.551,375.355ZM429.723,377.949C426.77,379.578 424.812,379.406 423.289,380.383C421.996,381.215 422.758,383.016 421.82,383.66C420.66,384.465 417.246,383.609 412.832,385.062C409.195,386.27 406.871,389.723 400.316,389.723C393.75,389.723 391.492,386.281 387.801,385.062C383.391,383.609 379.969,384.465 378.816,383.66C377.879,383.016 378.641,381.215 377.348,380.383C375.824,379.398 373.863,379.574 370.914,377.949C369.035,376.914 370.098,376.273 370.727,375.969C381.41,370.801 383.105,362.812 383.188,362.215C383.281,361.5 383.383,360.934 382.594,360.199C381.832,359.492 378.445,357.398 377.508,356.742C375.953,355.66 375.273,354.574 375.777,353.242C376.129,352.32 376.992,351.977 377.898,351.977C378.184,351.977 378.473,352.008 378.75,352.07C380.453,352.441 382.109,353.297 383.066,353.523C383.199,353.559 383.316,353.57 383.418,353.57C383.93,353.57 384.105,353.316 384.07,352.73C383.961,350.863 383.691,347.227 383.988,343.824C384.395,339.148 385.902,336.832 387.695,334.777C388.555,333.793 392.598,329.523 400.324,329.523C408.07,329.523 412.094,333.793 412.953,334.777C414.746,336.824 416.254,339.141 416.66,343.824C416.957,347.227 416.699,350.863 416.578,352.73C416.539,353.344 416.727,353.57 417.23,353.57C417.332,353.57 417.453,353.559 417.582,353.523C418.539,353.297 420.195,352.441 421.902,352.07C422.176,352.008 422.465,351.977 422.75,351.977C423.66,351.977 424.52,352.324 424.871,353.242C425.375,354.574 424.688,355.66 423.141,356.742C422.203,357.398 418.816,359.492 418.055,360.199C417.266,360.926 417.367,361.492 417.461,362.215C417.535,362.812 419.238,370.801 429.922,375.969C430.531,376.273 431.602,376.914 429.723,377.949Z" fill-rule="nonzero" transform="matrix(1,0,0,1,-1399,-5553) matrix(1,0,0,2.973269,0,-9619.684954) matrix(1,0,0,0.33633,0,3346.212673) matrix(9.482639,0,0,9.482639,-1941.560547,2269.26895)"/></g></g></g></g></svg>